Coordinates
version=1
nRows=12
nColumns=34
inDegrees=yes

Units are S.I. units (second, meters, Newtons, ...)
If the header above contains a line with 'inDegrees', this indicates whether rotational values are in degrees (yes) or radians (no).

endheader
time	pelvis_tilt	pelvis_list	pelvis_rotation	pelvis_tx	pelvis_ty	pelvis_tz	hip_flexion_r	hip_adduction_r	hip_rotation_r	knee_angle_r	ankle_angle_r	subtalar_angle_r	mtp_angle_r	hip_flexion_l	hip_adduction_l	hip_rotation_l	knee_angle_l	ankle_angle_l	subtalar_angle_l	mtp_angle_l	lumbar_extension	lumbar_bending	lumbar_rotation	arm_flex_r	arm_add_r	arm_rot_r	elbow_flex_r	pro_sup_r	arm_flex_l	arm_add_l	arm_rot_l	elbow_flex_l	pro_sup_l
      0.00000000	     -1.45230646	      0.30359061	      2.46016298	     -0.04774154	      1.22110723	     -0.07220873	      4.22078615	     -1.30029522	    -10.43854826	     16.28032032	     15.68706373	     -2.41569802	      0.00000000	      2.25156489	     -1.44890282	     -7.07266325	     10.73010446	     15.51762515	      1.06496630	      0.00000000	     -4.34091615	      2.14173627	     -5.13523694	      4.10572633	    -11.20513301	     25.31345928	     27.36371097	     75.95975822	     -4.21978805	     -9.27016711	     15.98429906	     30.47321238	     67.09771304
      0.01666670	     -3.35512903	      0.71570759	      2.00356558	     -0.04555772	      1.21968049	     -0.07261823	      6.45274638	     -1.74872368	    -10.60675155	     16.88706336	     18.41706827	     -0.02155952	      0.00000000	      4.33171306	     -0.60514755	     -8.86714422	     10.89568759	     16.27449935	      3.06715181	      0.00000000	     -1.44336246	      1.75526842	     -5.58117163	      3.80328283	    -10.63041337	     23.54731695	     26.89709616	     75.64472617	     -5.28429335	     -8.82678512	     15.84175647	     30.40078347	     67.46752962
      0.03333330	     -3.77993635	      1.18993803	      1.74507677	     -0.04550911	      1.21834081	     -0.07167391	      6.52296847	     -2.25150596	    -11.87553657	     16.23883330	     19.12961581	      1.71737483	      0.00000000	      4.76711092	     -0.31692783	    -10.27114169	     11.23433504	     17.36313356	      4.46503078	      0.00000000	     -0.65394458	      1.06677761	     -4.85964601	      2.82215160	     -9.66672599	     17.50655620	     27.37873940	     75.00694475	     -5.36513929	     -8.98410936	     14.78380784	     30.83114100	     69.06702065
      0.05000000	     -3.78061171	      1.64375699	      1.60007193	     -0.04746695	      1.21924917	     -0.07046672	      6.58625912	     -2.56289257	    -11.63960759	     15.89749000	     19.27652686	      2.10447276	      0.00000000	      4.51434680	      0.15901800	    -10.44682005	     10.65296230	     17.22220924	      4.27652653	      0.00000000	     -0.46814964	      0.47951755	     -4.81760529	      2.73148282	     -9.36263215	     17.29874077	     27.61811797	     75.02648759	     -5.35709062	     -9.55691827	     14.75105568	     30.78220866	     69.20870003
      0.06666670	     -3.79118503	      1.78143436	      1.62892518	     -0.04580300	      1.22149151	     -0.07045559	      6.21772013	     -2.71911575	    -12.52198960	     15.12454379	     19.62613731	      3.49152463	      0.00000000	      4.21593365	      0.36972213	    -10.21339383	     10.00898557	     16.82850813	      4.23074333	      0.00000000	     -0.57228368	      0.47691158	     -3.97769894	      1.44680275	     -9.32673639	     13.80069905	     29.85358750	     75.26460292	     -4.89583015	    -10.10708485	     16.17902910	     31.44429864	     71.92921625
      0.08333330	     -3.81907329	      1.88484219	      1.64600147	     -0.04854741	      1.21842033	     -0.06983863	      6.24217493	     -2.73562482	    -12.48337127	     14.85154648	     19.74787041	      3.48251905	      0.00000000	      4.30018392	      0.49100624	    -10.26672664	      9.79826157	     16.88110756	      4.18503959	      0.00000000	     -0.55765934	      0.57495007	     -3.94955591	      1.55163358	     -9.30718602	     13.81076535	     29.88040138	     75.27431236	     -4.68691913	    -10.25233108	     16.14761783	     31.47716550	     71.94163468
      0.10000000	     -3.85313770	      2.00885884	      1.77777757	     -0.04534563	      1.22111440	     -0.07019583	      5.79730446	     -2.73395086	    -12.35459698	     14.08912043	     19.89708712	      3.48555789	      0.00000000	      4.20119078	      0.63467685	    -10.11253400	      9.36306531	     16.79012172	      4.23751418	      0.00000000	     -0.30778460	      0.38949267	     -3.76180117	      1.28340267	     -9.31862001	     13.97060954	     29.84586841	     75.33004960	     -4.54090156	    -10.35764008	     16.22787122	     31.50403032	     72.02076797
      0.11666670	     -3.72625126	      1.99819876	      1.84622157	     -0.04683285	      1.22034980	     -0.07068721	      5.24017790	     -2.60745851	    -12.50303691	     13.33041194	     19.63579425	      3.43252878	      0.00000000	      3.88781623	      0.70827268	     -9.89386017	      8.95293970	     16.68226919	      4.09908776	      0.00000000	     -0.54409457	      0.53623494	     -3.20008179	      1.03448585	     -9.66155097	     14.67187013	     30.03305379	     75.54232607	     -3.92839542	    -10.40761344	     16.80993555	     31.60869244	     72.35819014
      0.13333330	     -3.86862016	      2.09211730	      1.90978124	     -0.04632080	      1.21974409	     -0.07086267	      5.08711104	     -2.59872907	    -12.43380439	     12.93797673	     19.69659234	      3.43807234	      0.00000000	      4.02893386	      0.84803371	     -9.94093946	      8.77256489	     16.68608448	      4.07532992	      0.00000000	     -0.52978217	      0.56745427	     -3.26071998	      1.04410108	     -9.69583346	     14.70486858	     30.05254348	     75.55141786	     -3.74669165	    -10.47546786	     16.82108725	     31.63912962	     72.37360222
      0.15000000	     -3.96669137	      2.07637124	      2.06145932	     -0.04793024	      1.21958567	     -0.07107766	      4.65966405	     -2.37754608	    -12.32987835	     11.98546919	     19.54822785	      3.43960667	      0.00000000	      3.98520655	      0.91537280	     -9.70974148	      8.50043375	     16.43673149	      4.20727060	      0.00000000	     -0.26636413	      0.51643157	     -3.18745662	      0.82227468	     -9.80732536	     14.93371272	     30.09913569	     75.60473049	     -3.58740070	    -10.58138958	     16.95467997	     31.67717760	     72.44537645
      0.16666670	     -4.11934533	      2.13497182	      2.09788464	     -0.05084840	      1.22179694	     -0.07020870	      4.68278783	     -2.31344290	    -12.31205751	     11.50817867	     19.51710831	      3.44042823	      0.00000000	      4.14687999	      1.04704042	     -9.72133489	      8.27334556	     16.39463158	      4.19502516	      0.00000000	     -0.37391691	      0.59991561	     -3.15927769	      0.95808835	     -9.84335910	     14.97635678	     30.14304697	     75.61616298	     -3.37186479	    -10.66655198	     16.96077262	     31.71179056	     72.45885496
      0.18333330	     -3.76741800	      2.06044479	      2.23039763	     -0.05158552	      1.22248409	     -0.06992505	      3.80467657	     -1.93235373	    -11.80146899	     10.31198611	     18.29435150	      2.76165183	      0.00000000	      3.67920276	      1.01828748	     -9.07090789	      7.89260942	     15.46418407	      3.64429408	      0.00000000	     -0.96264456	      0.64848022	     -2.68860563	      0.86745429	    -10.31916661	     16.48130574	     30.54311279	     75.93349190	     -2.49437709	    -10.87567859	     18.16890948	     31.47347315	     72.96489060
